<svg width="24" height="24" viewBox="0 0 24 24" fill="none" xmlns="http://www.w3.org/2000/svg">
<path d="M11.025 15.1864L11.4145 17.4521C11.1675 17.5821 10.7685 17.7029 10.2365 17.8143C9.695 17.935 9.0585 18 8.327 18C6.2275 17.9629 4.6505 17.35 3.596 16.18C2.532 15.0007 2 13.5057 2 11.695C2.0475 9.55 2.684 7.90643 3.9 6.755C5.154 5.59429 6.712 5 8.593 5C9.3055 5 9.923 5.065 10.436 5.17643C10.949 5.28786 11.329 5.40857 11.576 5.54786L11.025 7.86L10.018 7.54429C9.638 7.45143 9.201 7.405 8.6975 7.405C7.5955 7.39571 6.6835 7.73929 5.971 8.42643C5.249 9.10429 4.8785 10.1443 4.85 11.5279C4.85 12.7907 5.2015 13.775 5.876 14.4993C6.5505 15.2143 7.5005 15.5857 8.7165 15.595L9.98 15.4836C10.3885 15.4093 10.7305 15.3071 11.025 15.1864V15.1864ZM13.2955 18L13.875 14.2857H12.45L12.773 12.4286H14.198L14.502 10.5714H13.077L13.4 8.71429H14.825L15.4045 5H17.3045L16.725 8.71429H17.675L18.2545 5H20.1545L19.575 8.71429H21L20.677 10.5714H19.252L18.948 12.4286H20.373L20.05 14.2857H18.625L18.0455 18H16.1455L16.725 14.2857H15.775L15.1955 18H13.2955ZM16.098 12.4286H17.048L17.352 10.5714H16.402L16.098 12.4286Z" fill="#0277BD"/>
</svg>
