<svg width="24" height="24" viewBox="0 0 24 24" fill="none" xmlns="http://www.w3.org/2000/svg">
<path d="M12.399 3C12.1682 3.00088 11.947 3.08485 11.7826 3.23397L11.7735 3.2398L6 6.31391L11.7591 11.6195V11.6228L18.6804 18L20 15.8102L15.2424 5.2856L13.0217 3.2398C12.9401 3.16388 12.8429 3.10361 12.7359 3.06245C12.6289 3.02129 12.514 3.00007 12.3981 3H12.399Z" fill="#66C3FA"/>
<path d="M6.31324 6.0009L3.24062 11.7543L3.2348 11.7633C3.15992 11.8447 3.10063 11.9412 3.06034 12.0475C3.02005 12.1537 2.99954 12.2675 3.00001 12.3823C3.00047 12.4972 3.02189 12.6108 3.06304 12.7166C3.10419 12.8225 3.16426 12.9185 3.23979 12.9991L5.78615 15.7582L15.7476 20L18 18.6461L17.9392 18.5803L17.9234 18.5822L11.6782 11.8111H11.6707L6.31324 6V6.0009Z" fill="#215896"/>
<path d="M6 6L11.789 11.5789H11.7979L18.4599 18L20.9964 17.5349L21 10.3109L18.3222 7.7844C17.736 7.23121 16.8346 6.87467 15.9287 6.75668L15.9304 6.72932L6.00089 6.00085L6 6Z" fill="#235997"/>
<path d="M6 6L11.5791 11.7915V11.7995L18 18.4648L17.5329 21H10.3054L7.77844 18.3209C7.22498 17.7348 6.86912 16.8326 6.75192 15.9269L6.7237 15.9296L6 6Z" fill="#58B6F0"/>
</svg>
